<svg width="114" height="114" viewBox="0 0 114 114" fill="none" xmlns="http://www.w3.org/2000/svg">
<path d="M34.4268 30.082C34.4268 30.082 46.6508 39.3584 65.2344 22.0133C81.7383 6.60955 95.2142 30.9132 95.3085 42.5518C95.4307 57.6283 78.8044 69.6918 86.8731 79.5943C94.9418 89.4968 70.8718 105.849 57.8993 91.6973C41.7619 74.0929 37.3901 88.3965 28.1919 88.3965C21.5902 88.3965 8.03639 71.9931 17.1892 59.7894C24.8911 49.5202 20.6906 46.112 18.6564 42.5518C15.7221 37.4172 22.6906 23.4804 34.4268 30.082Z" fill="url(#paint0_linear_454_17225)"/>
<path d="M83.5019 50.5814C84.1589 50.8255 84.877 50.8418 85.5602 50.685C88.4224 50.028 98.2642 48.2884 96.554 55.9149C96.1816 57.4281 90.4175 65.902 98.6262 68.9953C99.2277 69.2248 99.8639 69.3501 100.508 69.3658C103.035 69.4178 108.043 68.8212 110.139 66.6874C112.672 64.1098 109.905 65.3321 109.905 65.3321C109.905 65.3321 100.279 69.533 96.8783 65.0761C96.4999 64.5802 96.259 63.86 96.19 63.2399C96.0703 62.1649 96.5477 60.7443 97.1747 59.5076C98.0234 57.8339 102.098 50.3047 93.2516 48.1113C91.2137 47.626 88.2539 47.1901 84.4374 48.7969C82.2113 49.7341 82.7044 50.285 83.5019 50.5814Z" fill="#E4C48C"/>
<path d="M85.4719 47.7705L82.9096 48.7295C82.0251 49.0605 81.5765 50.0459 81.9075 50.9304L82.0345 51.2697C82.3655 52.1542 83.3509 52.6029 84.2354 52.2718L86.7976 51.3129C87.6821 50.9819 88.1308 49.9965 87.7998 49.112L87.6728 48.7726C87.3417 47.8882 86.3564 47.4395 85.4719 47.7705Z" fill="#B08944"/>
<path d="M69.7441 50.5453L61.2939 53.7079C60.8517 53.8734 60.6273 54.3661 60.7929 54.8083L60.8261 54.8973C60.9917 55.3395 61.4843 55.5638 61.9266 55.3983L70.3768 52.2357C70.819 52.0702 71.0433 51.5775 70.8778 51.1353L70.8445 51.0464C70.679 50.6041 70.1863 50.3798 69.7441 50.5453Z" fill="white" fill-opacity="0.4"/>
<path d="M72.1025 56.8465L63.6523 60.0091C63.2101 60.1747 62.9857 60.6673 63.1513 61.1096L63.1845 61.1985C63.3501 61.6408 63.8427 61.8651 64.285 61.6996L72.7352 58.537C73.1775 58.3715 73.4018 57.8788 73.2363 57.4365L73.203 57.3476C73.0375 56.9054 72.5448 56.681 72.1025 56.8465Z" fill="white" fill-opacity="0.4"/>
<path d="M79.9038 46.2451L73.0551 48.8083C72.1706 49.1394 71.722 50.1247 72.053 51.0092L74.3913 57.2569C74.7223 58.1414 75.7077 58.59 76.5922 58.259L83.4409 55.6958C84.3254 55.3648 84.774 54.3794 84.443 53.4949L82.1047 47.2472C81.7737 46.3628 80.7883 45.9141 79.9038 46.2451Z" fill="#CCA96C"/>
<path d="M73.7627 47.884L66.914 50.4472C66.0295 50.7783 65.5809 51.7637 65.9119 52.6481L68.7015 60.1018C69.0326 60.9863 70.0179 61.435 70.9024 61.104L77.7511 58.5408C78.6356 58.2097 79.0843 57.2243 78.7533 56.3399L75.9636 48.8862C75.6326 48.0017 74.6472 47.553 73.7627 47.884Z" fill="#CCA96C"/>
<path d="M74.8348 46.3713L74.7811 46.3914C74.1914 46.6121 73.8923 47.269 74.113 47.8587L78.021 58.3005C78.2416 58.8902 78.8986 59.1893 79.4882 58.9686L79.5419 58.9485C80.1316 58.7278 80.4307 58.0709 80.21 57.4812L76.302 47.0394C76.0813 46.4497 75.4244 46.1506 74.8348 46.3713Z" fill="#E4C48C"/>
<path d="M5.00051 53.0475C5.00051 53.0475 18.7551 49.1821 16.7581 58.0876C16.4113 59.4967 11.4193 66.7522 17.3656 70.2357C18.6424 70.9837 20.1158 71.3151 21.5955 71.3073C24.2484 71.2935 28.4542 70.7829 30.3436 68.8598C32.8757 66.2821 30.1094 67.5045 30.1094 67.5045C30.1094 67.5045 22.2099 70.7539 18.146 68.1637C16.7583 67.2793 16.1293 65.5669 16.5061 63.965C16.6987 63.1694 16.992 62.4015 17.3789 61.68C18.2628 60.0246 22.3021 52.4771 13.4557 50.2837C11.4179 49.7984 8.45802 49.3625 4.64158 50.9693C0.825147 52.5761 5.00051 53.0475 5.00051 53.0475Z" fill="#E4C48C"/>
<path d="M32.1931 65.5117L29.6308 66.4707C28.7463 66.8017 28.2977 67.7871 28.6287 68.6716L28.7557 69.0109C29.0867 69.8954 30.0721 70.3441 30.9566 70.0131L33.5188 69.0541C34.4033 68.7231 34.852 67.7377 34.521 66.8532L34.394 66.5138C34.0629 65.6294 33.0775 65.1807 32.1931 65.5117Z" fill="#B08944"/>
<path d="M36.522 61.296L32.7246 62.7173C31.8401 63.0483 31.3914 64.0337 31.7224 64.9182L33.5535 69.8107C33.8845 70.6952 34.8699 71.1438 35.7544 70.8128L39.5518 69.3916C40.4363 69.0606 40.885 68.0752 40.5539 67.1907L38.7228 62.2982C38.3918 61.4137 37.4064 60.965 36.522 61.296Z" fill="#C19C5B"/>
<path d="M42.8441 57.5292L37.1811 59.6487C36.2966 59.9797 35.8479 60.9651 36.179 61.8496L38.9686 69.3033C39.2996 70.1878 40.285 70.6364 41.1695 70.3054L46.8325 68.1859C47.717 67.8549 48.1656 66.8695 47.8346 65.985L45.045 58.5313C44.7139 57.6468 43.7286 57.1982 42.8441 57.5292Z" fill="#CCA96C"/>
<path d="M44.0433 55.9856L43.9895 56.0057C43.3999 56.2264 43.1008 56.8833 43.3215 57.4729L47.2295 67.9148C47.4501 68.5044 48.1071 68.8035 48.6967 68.5829L48.7504 68.5628C49.3401 68.3421 49.6392 67.6851 49.4185 67.0955L45.5105 56.6537C45.2898 56.064 44.6329 55.7649 44.0433 55.9856Z" fill="#E4C48C"/>
<path d="M58.5042 49.3334C58.3003 49.3107 58.1131 49.2099 57.982 49.052C57.8509 48.8941 57.7862 48.6915 57.8015 48.4869L58.2241 40.7691C58.2493 40.3081 58.6386 39.9578 59.0804 39.9986L59.696 40.0556C60.1378 40.0963 60.4541 40.5116 60.3923 40.9694L59.354 48.6302C59.3301 48.8342 59.2284 49.0212 59.0701 49.1522C58.9119 49.2832 58.7091 49.3481 58.5042 49.3334V49.3334Z" fill="#E4C48C"/>
<path opacity="0.4" d="M54.8561 49.9988C54.7926 50.0175 54.7262 50.0234 54.6604 50.0164C54.5947 50.0093 54.531 49.9894 54.473 49.9577C54.4149 49.926 54.3637 49.8832 54.3222 49.8318C54.2807 49.7803 54.2498 49.7211 54.2312 49.6577L52.7223 44.8568C52.6784 44.7203 52.6905 44.5719 52.7558 44.4443C52.8212 44.3166 52.9345 44.2201 53.071 44.176L53.4617 44.0581C53.5287 44.0385 53.5991 44.0331 53.6683 44.0421C53.7375 44.0511 53.8042 44.0743 53.864 44.1104C53.9238 44.1464 53.9755 44.1945 54.0157 44.2515C54.056 44.3085 54.0841 44.3733 54.0981 44.4417L55.2164 49.3605C55.2476 49.4927 55.2278 49.6318 55.161 49.7501C55.0943 49.8684 54.9854 49.9572 54.8561 49.9988V49.9988Z" fill="#E4C48C"/>
<path d="M52.8198 52.7675C52.5494 53.1024 52.0057 53.0985 51.5871 52.7584L44.1561 46.7208C43.7122 46.3602 43.5812 45.7633 43.868 45.4081L44.2678 44.9129C44.5546 44.5576 45.1437 44.5868 45.5637 44.977L52.5951 51.5098C52.9911 51.8777 53.0901 52.4325 52.8198 52.7675Z" fill="#E4C48C"/>
<path d="M56.2544 68.3616C56.4458 68.4355 56.601 68.5809 56.6874 68.767C56.7738 68.9531 56.7846 69.1655 56.7176 69.3594L54.338 76.7131C54.1959 77.1524 53.7301 77.3914 53.3133 77.2394L52.7324 77.0272C52.3157 76.875 52.1157 76.3925 52.2925 75.9659L55.2529 68.8244C55.3281 68.6331 55.4742 68.4782 55.6607 68.392C55.8473 68.3057 56.06 68.2948 56.2544 68.3616V68.3616Z" fill="#E4C48C"/>
<path opacity="0.4" d="M59.9519 68.6501C60.0179 68.6483 60.0837 68.6595 60.1455 68.6831C60.2073 68.7067 60.2638 68.7422 60.3118 68.7877C60.3598 68.8331 60.3984 68.8876 60.4254 68.948C60.4523 69.0083 60.4672 69.0734 60.469 69.1395L60.7017 74.1666C60.7093 74.3098 60.6597 74.4501 60.5639 74.5569C60.4681 74.6636 60.3339 74.728 60.1907 74.7358L59.7828 74.75C59.713 74.7518 59.6436 74.7391 59.5789 74.7127C59.5143 74.6863 59.4558 74.6468 59.4072 74.5967C59.3586 74.5466 59.3209 74.4869 59.2965 74.4215C59.2721 74.3561 59.2615 74.2863 59.2654 74.2166L59.4406 69.1753C59.4442 69.0395 59.4989 68.9101 59.5936 68.8128C59.6883 68.7155 59.8162 68.6574 59.9519 68.6501V68.6501Z" fill="#E4C48C"/>
<path d="M62.6273 66.4934C62.9743 66.2385 63.4989 66.3813 63.8168 66.8169L69.4595 74.5519C69.7965 75.014 69.7708 75.6243 69.4025 75.8946L68.8895 76.2713C68.5215 76.5416 67.9594 76.3629 67.6529 75.8784L62.5229 67.7664C62.2345 67.3099 62.2803 66.7482 62.6273 66.4934Z" fill="#E4C48C"/>
<defs>
<linearGradient id="paint0_linear_454_17225" x1="18.1984" y1="14.7649" x2="93.7406" y2="83.4396" gradientUnits="userSpaceOnUse">
<stop stop-color="#EAECEE"/>
<stop offset="1" stop-color="white" stop-opacity="0"/>
</linearGradient>
</defs>
</svg>
