<svg xmlns="http://www.w3.org/2000/svg" width="72" viewBox="0 0 72 72" height="72" version="1.0"><path fill="#A84245" d="M 14.382812 43.351562 L 57.867188 43.351562 L 57.867188 59.851562 L 14.382812 59.851562 L 14.382812 43.351562"/><path fill="#A84245" d="M 7.339844 33 L 65.058594 33 L 65.058594 45.75 L 7.339844 45.75 L 7.339844 33"/><path fill="#EB82AB" d="M 22.773438 40.996094 L 42.574219 6.703125 L 62.375 40.996094 Z M 22.773438 40.996094"/><path fill="#EB82AB" d="M 9.785156 33.140625 L 42.050781 10.183594 L 45.800781 49.601562 Z M 9.785156 33.140625"/><path fill="#EB82AB" d="M 30 12.578125 C 26.6875 12.578125 24 15.597656 24 19.328125 C 24 23.054688 26.6875 26.078125 30 26.078125 C 33.3125 26.078125 36 23.054688 36 19.328125 C 36 15.597656 33.3125 12.578125 30 12.578125"/><path fill="#EF649B" d="M 56.125 26.824219 C 56.128906 27.277344 56.101562 27.726562 56.046875 28.175781 L 52.078125 28.175781 C 52.167969 27.726562 52.214844 27.273438 52.210938 26.8125 C 52.207031 26.355469 52.15625 25.902344 52.054688 25.453125 C 51.953125 25.007812 51.808594 24.574219 51.617188 24.15625 C 51.421875 23.742188 51.1875 23.351562 50.910156 22.984375 C 50.636719 22.617188 50.324219 22.285156 49.976562 21.984375 C 49.628906 21.683594 49.253906 21.425781 48.847656 21.207031 C 48.445312 20.988281 48.023438 20.8125 47.585938 20.683594 C 47.144531 20.554688 46.695312 20.472656 46.238281 20.441406 C 45.90625 20.425781 45.601562 20.328125 45.320312 20.15625 C 45.039062 19.984375 44.816406 19.753906 44.652344 19.46875 C 44.300781 18.886719 44.261719 18.28125 44.535156 17.660156 C 44.664062 17.375 44.765625 17.078125 44.839844 16.773438 C 44.984375 16.1875 45.023438 15.589844 44.960938 14.988281 C 44.851562 14.007812 44.601562 13.070312 44.210938 12.164062 C 44.035156 11.753906 43.726562 11.53125 43.28125 11.492188 C 42.839844 11.453125 42.492188 11.617188 42.25 11.988281 C 40.824219 14.144531 38.730469 16.039062 36.058594 16.28125 C 34.605469 16.4375 33.195312 16.253906 31.828125 15.734375 C 31.480469 15.660156 31.132812 15.621094 30.78125 15.621094 C 30.324219 15.621094 29.882812 15.6875 29.445312 15.820312 C 29.011719 15.949219 28.605469 16.140625 28.226562 16.390625 C 27.847656 16.644531 27.515625 16.945312 27.226562 17.292969 C 26.933594 17.644531 26.703125 18.027344 26.523438 18.445312 C 26.347656 18.863281 26.234375 19.296875 26.1875 19.75 C 26.136719 20.203125 26.15625 20.648438 26.238281 21.097656 C 26.324219 21.542969 26.46875 21.96875 26.679688 22.371094 C 26.886719 22.773438 27.148438 23.136719 27.464844 23.464844 C 27.773438 23.785156 27.953125 24.167969 28 24.609375 C 28.050781 25.050781 27.960938 25.460938 27.730469 25.839844 C 27.5 26.222656 27.175781 26.492188 26.761719 26.65625 C 26.347656 26.816406 25.929688 26.835938 25.5 26.710938 C 25.09375 26.589844 24.671875 26.527344 24.246094 26.523438 L 24.199219 26.523438 C 23.53125 26.523438 22.890625 26.664062 22.285156 26.945312 C 21.675781 27.222656 21.152344 27.617188 20.714844 28.121094 L 16.214844 28.121094 C 16.472656 27.4375 16.816406 26.796875 17.238281 26.199219 C 17.664062 25.605469 18.152344 25.070312 18.714844 24.597656 C 19.273438 24.125 19.882812 23.730469 20.539062 23.414062 C 21.199219 23.09375 21.886719 22.863281 22.605469 22.722656 C 22.359375 21.902344 22.234375 21.066406 22.234375 20.210938 C 22.238281 19.652344 22.292969 19.097656 22.40625 18.550781 C 22.515625 18 22.679688 17.46875 22.894531 16.953125 C 23.113281 16.4375 23.375 15.949219 23.6875 15.484375 C 24 15.019531 24.351562 14.589844 24.75 14.195312 C 25.144531 13.800781 25.574219 13.445312 26.039062 13.136719 C 26.507812 12.828125 26.996094 12.5625 27.515625 12.351562 C 28.03125 12.136719 28.5625 11.972656 29.113281 11.863281 C 29.660156 11.753906 30.214844 11.699219 30.773438 11.699219 C 31.5 11.699219 32.210938 11.792969 32.914062 11.976562 C 32.996094 11.996094 33.078125 12.023438 33.15625 12.058594 C 33.980469 12.371094 34.832031 12.480469 35.707031 12.382812 C 37.734375 12.183594 39.851562 9.160156 40.433594 6.5625 C 40.574219 5.980469 40.90625 5.550781 41.4375 5.273438 C 41.972656 4.992188 42.519531 4.964844 43.078125 5.191406 C 46.582031 6.609375 48.574219 11.558594 48.863281 14.640625 C 48.9375 15.417969 48.917969 16.191406 48.796875 16.964844 C 49.320312 17.125 49.828125 17.328125 50.320312 17.570312 C 50.8125 17.8125 51.285156 18.09375 51.730469 18.410156 C 52.179688 18.726562 52.601562 19.078125 52.992188 19.460938 C 53.386719 19.84375 53.746094 20.257812 54.074219 20.695312 C 54.398438 21.136719 54.691406 21.601562 54.945312 22.085938 C 55.199219 22.574219 55.414062 23.078125 55.585938 23.597656 C 55.761719 24.117188 55.894531 24.648438 55.984375 25.191406 C 56.074219 25.730469 56.121094 26.277344 56.125 26.824219 Z M 56.125 26.824219"/><path fill="#D1AE80" d="M 66.480469 32.144531 C 65.648438 30.980469 64.609375 30.046875 63.363281 29.347656 C 62.117188 28.648438 60.78125 28.246094 59.351562 28.140625 L 13.082031 28.140625 C 12.851562 28.140625 12.621094 28.140625 12.40625 28.140625 L 12 28.140625 L 11.730469 28.175781 L 10.660156 28.175781 L 10.53125 28.210938 L 10.410156 28.25 L 10.308594 28.25 L 10.21875 28.285156 L 10.144531 28.285156 L 9.996094 28.339844 L 9.882812 28.378906 L 9.746094 28.425781 L 9.625 28.472656 L 9.585938 28.472656 L 9.464844 28.519531 L 9.132812 28.667969 L 9.039062 28.714844 L 8.9375 28.769531 L 8.835938 28.816406 L 8.761719 28.816406 L 8.679688 28.863281 L 8.398438 29.378906 L 8.28125 29.445312 L 8.132812 29.53125 L 7.984375 29.621094 L 7.804688 29.742188 L 7.65625 29.84375 L 7.585938 29.890625 L 7.527344 29.890625 L 7.457031 29.9375 L 7.351562 30.050781 L 7.285156 30.101562 L 7.230469 30.148438 L 7.128906 30.226562 L 6.851562 30.417969 L 6.777344 30.492188 L 6.714844 30.539062 L 6.65625 30.59375 L 6.546875 30.726562 L 6.5 30.726562 L 6.296875 30.929688 L 6.175781 31.042969 L 6.175781 31.09375 L 6.082031 31.191406 L 6.019531 31.261719 L 5.941406 31.347656 L 5.859375 31.402344 L 5.796875 31.476562 L 5.703125 31.585938 L 5.703125 31.632812 L 5.589844 31.773438 L 5.488281 31.902344 L 5.425781 31.984375 L 5.339844 32.105469 C 5.125 32.402344 4.929688 32.714844 4.75 33.035156 C 4.570312 33.355469 4.414062 33.6875 4.273438 34.027344 C 4.132812 34.367188 4.011719 34.714844 3.910156 35.066406 C 3.808594 35.421875 3.730469 35.777344 3.671875 36.140625 C 3.609375 36.503906 3.574219 36.871094 3.554688 37.238281 C 3.539062 37.605469 3.542969 37.972656 3.566406 38.339844 C 3.589844 38.707031 3.636719 39.070312 3.703125 39.429688 C 3.769531 39.792969 3.855469 40.148438 3.964844 40.5 C 4.070312 40.851562 4.199219 41.195312 4.347656 41.535156 C 4.492188 41.871094 4.660156 42.199219 4.84375 42.515625 C 5.027344 42.832031 5.230469 43.140625 5.449219 43.433594 C 5.671875 43.730469 5.90625 44.011719 6.160156 44.277344 C 6.410156 44.546875 6.679688 44.796875 6.960938 45.035156 C 7.242188 45.273438 7.535156 45.492188 7.839844 45.695312 C 8.148438 45.898438 8.464844 46.082031 8.792969 46.25 C 9.121094 46.414062 9.457031 46.5625 9.800781 46.691406 L 12.859375 58.941406 C 12.96875 59.378906 13.203125 59.738281 13.558594 60.015625 C 13.914062 60.289062 14.316406 60.429688 14.769531 60.425781 L 56.984375 60.425781 C 57.433594 60.429688 57.839844 60.289062 58.195312 60.015625 C 58.550781 59.738281 58.785156 59.378906 58.894531 58.941406 L 62.019531 46.730469 C 62.9375 46.390625 63.78125 45.917969 64.558594 45.316406 C 65.332031 44.714844 65.996094 44.011719 66.554688 43.207031 C 67.117188 42.402344 67.542969 41.535156 67.835938 40.597656 C 68.128906 39.664062 68.277344 38.707031 68.277344 37.726562 C 68.28125 35.671875 67.683594 33.8125 66.480469 32.144531 Z M 66.480469 32.144531"/><path fill="#E4C28C" d="M 66.480469 32.144531 C 65.648438 30.980469 64.609375 30.046875 63.363281 29.347656 C 62.117188 28.648438 60.78125 28.246094 59.351562 28.140625 L 13.082031 28.140625 C 12.851562 28.140625 12.621094 28.140625 12.40625 28.140625 L 12 28.140625 L 11.730469 28.175781 L 10.660156 28.175781 L 10.53125 28.210938 L 10.410156 28.25 L 10.308594 28.25 L 10.21875 28.285156 L 10.144531 28.285156 L 9.996094 28.339844 L 9.882812 28.378906 L 9.746094 28.425781 L 9.625 28.472656 L 9.585938 28.472656 L 9.464844 28.519531 L 9.132812 28.667969 L 9.039062 28.714844 L 8.9375 28.769531 L 8.835938 28.816406 L 8.761719 28.816406 L 8.679688 28.863281 L 8.398438 29.378906 L 8.28125 29.445312 L 8.132812 29.53125 L 7.984375 29.621094 L 7.804688 29.742188 L 7.65625 29.84375 L 7.585938 29.890625 L 7.527344 29.890625 L 7.457031 29.9375 L 7.351562 30.050781 L 7.285156 30.101562 L 7.230469 30.148438 L 7.128906 30.226562 L 6.851562 30.417969 L 6.777344 30.492188 L 6.714844 30.539062 L 6.65625 30.59375 L 6.546875 30.726562 L 6.5 30.726562 L 6.296875 30.929688 L 6.175781 31.042969 L 6.175781 31.09375 L 6.082031 31.191406 L 6.019531 31.261719 L 5.941406 31.347656 L 5.859375 31.402344 L 5.796875 31.476562 L 5.703125 31.585938 L 5.703125 31.632812 L 5.589844 31.773438 L 5.488281 31.902344 L 5.425781 31.984375 L 5.339844 32.105469 C 5.125 32.402344 4.929688 32.714844 4.75 33.035156 C 4.570312 33.355469 4.414062 33.6875 4.273438 34.027344 C 4.132812 34.367188 4.011719 34.714844 3.910156 35.066406 C 3.808594 35.421875 3.730469 35.777344 3.671875 36.140625 C 3.609375 36.503906 3.574219 36.871094 3.554688 37.238281 C 3.539062 37.605469 3.542969 37.972656 3.566406 38.339844 C 3.589844 38.707031 3.636719 39.070312 3.703125 39.429688 C 3.769531 39.792969 3.855469 40.148438 3.964844 40.5 C 4.070312 40.851562 4.199219 41.195312 4.347656 41.535156 C 4.492188 41.871094 4.660156 42.199219 4.84375 42.515625 C 5.027344 42.832031 5.230469 43.140625 5.449219 43.433594 C 5.671875 43.730469 5.90625 44.011719 6.160156 44.277344 C 6.410156 44.546875 6.679688 44.796875 6.960938 45.035156 C 7.242188 45.273438 7.535156 45.492188 7.839844 45.695312 C 8.148438 45.898438 8.464844 46.082031 8.792969 46.25 C 9.121094 46.414062 9.457031 46.5625 9.800781 46.691406 L 12.859375 58.941406 C 12.96875 59.378906 13.203125 59.738281 13.558594 60.015625 C 13.914062 60.289062 14.316406 60.429688 14.769531 60.425781 L 56.984375 60.425781 C 57.433594 60.429688 57.839844 60.289062 58.195312 60.015625 C 58.550781 59.738281 58.785156 59.378906 58.894531 58.941406 L 62.019531 46.730469 C 62.9375 46.390625 63.78125 45.917969 64.558594 45.316406 C 65.332031 44.714844 65.996094 44.011719 66.554688 43.207031 C 67.117188 42.402344 67.542969 41.535156 67.835938 40.597656 C 68.128906 39.664062 68.277344 38.707031 68.277344 37.726562 C 68.28125 35.671875 67.683594 33.8125 66.480469 32.144531 Z M 55.652344 55.703125 C 55.589844 55.949219 55.457031 56.152344 55.253906 56.308594 C 55.050781 56.460938 54.824219 56.539062 54.566406 56.539062 L 17.183594 56.539062 C 16.929688 56.539062 16.703125 56.460938 16.5 56.308594 C 16.296875 56.152344 16.164062 55.949219 16.097656 55.703125 L 13.890625 47.304688 L 14.277344 47.265625 C 15.546875 47.109375 16.742188 46.714844 17.855469 46.078125 C 18.96875 45.445312 19.917969 44.621094 20.703125 43.605469 C 20.925781 43.894531 21.164062 44.171875 21.421875 44.433594 C 21.675781 44.695312 21.945312 44.941406 22.226562 45.171875 C 22.511719 45.40625 22.804688 45.621094 23.113281 45.816406 C 23.421875 46.015625 23.738281 46.195312 24.066406 46.355469 C 24.394531 46.515625 24.730469 46.660156 25.074219 46.78125 C 25.421875 46.902344 25.769531 47.007812 26.125 47.089844 C 26.484375 47.171875 26.84375 47.234375 27.207031 47.277344 C 27.570312 47.316406 27.933594 47.339844 28.300781 47.339844 C 28.664062 47.339844 29.03125 47.316406 29.394531 47.277344 C 29.757812 47.234375 30.117188 47.171875 30.472656 47.089844 C 30.828125 47.007812 31.179688 46.902344 31.523438 46.78125 C 31.867188 46.660156 32.203125 46.515625 32.53125 46.355469 C 32.859375 46.195312 33.175781 46.015625 33.484375 45.816406 C 33.792969 45.621094 34.089844 45.40625 34.371094 45.171875 C 34.65625 44.941406 34.925781 44.695312 35.179688 44.433594 C 35.433594 44.171875 35.671875 43.894531 35.898438 43.605469 C 36.121094 43.894531 36.359375 44.171875 36.613281 44.433594 C 36.871094 44.695312 37.136719 44.941406 37.421875 45.171875 C 37.703125 45.40625 38 45.621094 38.308594 45.816406 C 38.617188 46.015625 38.933594 46.195312 39.261719 46.355469 C 39.589844 46.515625 39.925781 46.660156 40.269531 46.78125 C 40.613281 46.902344 40.964844 47.007812 41.320312 47.089844 C 41.675781 47.171875 42.035156 47.234375 42.398438 47.277344 C 42.761719 47.316406 43.128906 47.339844 43.492188 47.339844 C 43.859375 47.339844 44.222656 47.316406 44.585938 47.277344 C 44.949219 47.234375 45.308594 47.171875 45.667969 47.089844 C 46.023438 47.007812 46.371094 46.902344 46.71875 46.78125 C 47.0625 46.660156 47.398438 46.515625 47.726562 46.355469 C 48.054688 46.195312 48.371094 46.015625 48.679688 45.816406 C 48.988281 45.621094 49.28125 45.40625 49.566406 45.171875 C 49.847656 44.941406 50.117188 44.695312 50.375 44.433594 C 50.628906 44.171875 50.867188 43.894531 51.089844 43.605469 C 51.871094 44.617188 52.8125 45.4375 53.917969 46.070312 C 55.027344 46.707031 56.210938 47.101562 57.476562 47.265625 L 57.839844 47.304688 Z M 64.226562 38.152344 C 64.199219 38.503906 64.136719 38.851562 64.042969 39.195312 C 63.949219 39.535156 63.824219 39.863281 63.667969 40.183594 C 63.515625 40.5 63.328125 40.800781 63.117188 41.082031 C 62.902344 41.363281 62.664062 41.625 62.402344 41.859375 C 62.140625 42.097656 61.859375 42.308594 61.554688 42.492188 C 61.253906 42.675781 60.9375 42.828125 60.605469 42.953125 C 60.273438 43.078125 59.933594 43.167969 59.582031 43.226562 C 59.234375 43.285156 58.882812 43.3125 58.527344 43.304688 C 58.175781 43.296875 57.824219 43.253906 57.480469 43.179688 C 57.132812 43.105469 56.796875 43 56.472656 42.859375 C 56.144531 42.722656 55.835938 42.554688 55.542969 42.359375 C 55.25 42.160156 54.976562 41.9375 54.722656 41.6875 C 54.472656 41.441406 54.246094 41.171875 54.046875 40.878906 C 53.847656 40.585938 53.675781 40.277344 53.535156 39.953125 C 53.390625 39.628906 53.28125 39.296875 53.203125 38.949219 C 53.125 38.605469 53.082031 38.257812 53.070312 37.902344 L 53.070312 37.511719 C 53.039062 37.265625 52.96875 37.03125 52.851562 36.808594 C 52.734375 36.585938 52.585938 36.394531 52.398438 36.230469 C 52.210938 36.066406 52 35.9375 51.765625 35.851562 C 51.535156 35.761719 51.292969 35.722656 51.042969 35.722656 C 50.796875 35.726562 50.5625 35.773438 50.332031 35.863281 C 50.105469 35.953125 49.902344 36.082031 49.71875 36.246094 C 49.535156 36.410156 49.390625 36.601562 49.277344 36.820312 C 49.164062 37.035156 49.09375 37.269531 49.066406 37.511719 C 49.066406 37.578125 49.066406 37.652344 49.066406 37.71875 L 49.066406 37.902344 C 49.054688 38.261719 49.007812 38.617188 48.925781 38.964844 C 48.84375 39.316406 48.730469 39.652344 48.585938 39.980469 C 48.441406 40.308594 48.265625 40.621094 48.058594 40.914062 C 47.851562 41.207031 47.621094 41.480469 47.363281 41.730469 C 47.105469 41.976562 46.824219 42.199219 46.523438 42.394531 C 46.222656 42.589844 45.90625 42.757812 45.574219 42.890625 C 45.242188 43.023438 44.898438 43.125 44.546875 43.195312 C 44.195312 43.261719 43.839844 43.296875 43.480469 43.296875 C 43.121094 43.296875 42.765625 43.261719 42.414062 43.195312 C 42.0625 43.125 41.71875 43.023438 41.386719 42.890625 C 41.054688 42.757812 40.738281 42.589844 40.4375 42.394531 C 40.136719 42.199219 39.855469 41.976562 39.597656 41.730469 C 39.339844 41.480469 39.105469 41.207031 38.902344 40.914062 C 38.695312 40.621094 38.519531 40.308594 38.375 39.980469 C 38.226562 39.652344 38.113281 39.316406 38.035156 38.964844 C 37.953125 38.617188 37.90625 38.261719 37.894531 37.902344 L 37.894531 37.71875 C 37.894531 37.652344 37.894531 37.578125 37.894531 37.511719 C 37.859375 37.269531 37.785156 37.042969 37.667969 36.828125 C 37.550781 36.613281 37.402344 36.425781 37.21875 36.265625 C 37.03125 36.109375 36.828125 35.984375 36.597656 35.898438 C 36.371094 35.816406 36.132812 35.773438 35.890625 35.773438 C 35.644531 35.773438 35.410156 35.816406 35.179688 35.898438 C 34.953125 35.984375 34.746094 36.109375 34.5625 36.265625 C 34.378906 36.425781 34.226562 36.613281 34.113281 36.828125 C 33.996094 37.042969 33.917969 37.269531 33.886719 37.511719 L 33.886719 37.894531 C 33.859375 38.542969 33.730469 39.167969 33.488281 39.769531 C 33.246094 40.371094 32.910156 40.914062 32.480469 41.398438 C 32.050781 41.882812 31.554688 42.28125 30.984375 42.589844 C 30.417969 42.902344 29.8125 43.109375 29.171875 43.210938 C 28.535156 43.3125 27.894531 43.300781 27.257812 43.179688 C 26.621094 43.058594 26.027344 42.835938 25.46875 42.507812 C 24.910156 42.179688 24.421875 41.765625 24.007812 41.269531 C 23.59375 40.773438 23.273438 40.21875 23.050781 39.609375 C 22.835938 39.007812 22.726562 38.382812 22.726562 37.742188 C 22.71875 37.492188 22.667969 37.25 22.570312 37.019531 C 22.476562 36.789062 22.339844 36.582031 22.167969 36.402344 C 21.996094 36.222656 21.796875 36.078125 21.570312 35.96875 C 21.34375 35.863281 21.105469 35.800781 20.855469 35.78125 C 20.605469 35.761719 20.363281 35.789062 20.121094 35.859375 C 19.882812 35.933594 19.664062 36.042969 19.464844 36.199219 C 19.269531 36.351562 19.105469 36.535156 18.972656 36.746094 C 18.84375 36.960938 18.757812 37.191406 18.710938 37.4375 C 18.710938 37.519531 18.710938 37.597656 18.710938 37.679688 L 18.710938 37.742188 C 18.710938 37.828125 18.710938 37.910156 18.710938 37.996094 C 18.695312 38.359375 18.644531 38.71875 18.554688 39.070312 C 18.46875 39.421875 18.351562 39.761719 18.199219 40.09375 C 18.042969 40.421875 17.863281 40.730469 17.648438 41.027344 C 17.433594 41.320312 17.195312 41.589844 16.929688 41.835938 C 16.664062 42.082031 16.375 42.300781 16.066406 42.492188 C 15.757812 42.683594 15.433594 42.839844 15.09375 42.96875 C 14.753906 43.09375 14.40625 43.1875 14.046875 43.246094 C 13.6875 43.308594 13.328125 43.332031 12.964844 43.320312 C 12.601562 43.308594 12.246094 43.261719 11.890625 43.183594 C 11.539062 43.101562 11.195312 42.988281 10.863281 42.839844 C 10.53125 42.691406 10.21875 42.515625 9.921875 42.304688 C 9.625 42.097656 9.351562 41.859375 9.101562 41.597656 C 8.847656 41.335938 8.625 41.050781 8.429688 40.746094 C 8.234375 40.441406 8.070312 40.117188 7.9375 39.78125 C 7.804688 39.441406 7.707031 39.097656 7.640625 38.738281 C 7.578125 38.382812 7.546875 38.023438 7.554688 37.660156 C 7.558594 37.296875 7.597656 36.9375 7.675781 36.582031 C 7.75 36.226562 7.859375 35.882812 8 35.550781 C 8.144531 35.214844 8.316406 34.898438 8.519531 34.597656 C 8.726562 34.300781 8.957031 34.023438 9.214844 33.765625 C 9.472656 33.511719 9.753906 33.285156 10.054688 33.085938 C 10.359375 32.882812 10.675781 32.714844 11.011719 32.578125 C 11.347656 32.4375 11.695312 32.335938 12.050781 32.265625 C 12.40625 32.195312 12.765625 32.160156 13.128906 32.160156 L 58.671875 32.160156 C 59.054688 32.160156 59.433594 32.199219 59.808594 32.28125 C 60.183594 32.359375 60.546875 32.476562 60.894531 32.632812 C 61.246094 32.785156 61.578125 32.972656 61.890625 33.195312 C 62.203125 33.417969 62.488281 33.667969 62.75 33.949219 C 63.007812 34.230469 63.238281 34.535156 63.4375 34.863281 C 63.632812 35.191406 63.796875 35.535156 63.921875 35.898438 C 64.050781 36.257812 64.140625 36.628906 64.191406 37.011719 C 64.242188 37.390625 64.253906 37.769531 64.226562 38.152344 Z M 64.226562 38.152344"/></svg>