<svg id="svg" version="1.1" xmlns="http://www.w3.org/2000/svg" xmlns:xlink="http://www.w3.org/1999/xlink" width="400" height="400" viewBox="0, 0, 400,400"><g id="svgg"><path id="path0" d="M192.449 88.901 C 188.194 101.535,184.591 111.946,184.444 112.037 C 184.296 112.129,182.111 112.639,179.588 113.171 C 114.060 126.992,87.565 208.508,132.742 257.305 L 134.838 259.568 126.679 283.735 C 122.191 297.027,118.580 307.963,118.655 308.037 C 118.729 308.112,137.020 297.227,159.302 283.849 C 181.584 270.472,199.986 259.522,200.196 259.516 C 200.406 259.511,218.488 270.388,240.379 283.688 C 262.269 296.988,280.381 307.947,280.626 308.041 C 280.872 308.136,277.439 297.315,272.998 283.995 L 264.924 259.778 267.094 257.469 C 275.901 248.100,283.179 234.531,286.859 220.625 C 299.578 172.553,269.212 123.464,220.386 113.165 C 217.849 112.630,215.747 112.157,215.715 112.115 C 215.683 112.072,212.204 101.662,207.983 88.981 C 203.762 76.301,200.281 65.927,200.247 65.928 C 200.213 65.930,196.704 76.268,192.449 88.901 M232.083 82.407 C 231.518 84.852,230.857 87.593,230.614 88.499 L 230.172 90.145 225.460 91.832 C 222.868 92.760,220.746 93.609,220.744 93.719 C 220.742 93.829,222.831 94.564,225.386 95.353 C 227.940 96.142,230.116 96.925,230.221 97.095 C 230.325 97.264,231.131 99.862,232.011 102.868 L 233.611 108.333 234.375 105.741 C 234.796 104.315,235.541 101.738,236.031 100.014 L 236.922 96.881 241.980 95.210 C 247.591 93.355,247.702 93.273,245.463 92.624 C 239.289 90.832,236.666 89.908,236.660 89.521 C 236.657 89.275,235.857 86.574,234.883 83.519 L 233.111 77.963 232.083 82.407 M202.910 104.012 C 204.161 107.746,205.185 110.914,205.185 111.053 C 205.185 111.192,202.925 111.323,200.164 111.346 C 196.591 111.376,195.186 111.267,195.294 110.971 C 195.378 110.743,196.490 107.416,197.765 103.579 C 199.040 99.741,200.207 96.741,200.359 96.912 C 200.511 97.083,201.659 100.277,202.910 104.012 M209.646 124.683 C 210.037 125.074,263.763 284.490,263.615 284.821 C 263.562 284.940,249.519 276.824,232.407 266.786 C 215.296 256.748,201.005 248.437,200.649 248.317 C 200.212 248.169,189.934 254.080,169.046 266.490 C 152.021 276.606,138.014 284.804,137.919 284.709 C 137.745 284.535,190.165 126.278,190.784 125.111 C 191.296 124.144,208.711 123.748,209.646 124.683 M179.634 126.574 C 179.640 126.935,137.339 252.349,137.130 252.593 C 136.881 252.882,135.389 250.933,132.198 246.152 C 102.867 202.209,124.586 142.225,175.250 127.247 C 178.493 126.288,179.627 126.114,179.634 126.574 M227.689 128.218 C 268.161 141.595,290.489 186.088,277.148 226.776 C 274.475 234.927,268.275 246.559,263.791 251.834 L 262.704 253.112 241.555 189.666 L 220.406 126.221 221.777 126.469 C 222.531 126.606,225.191 127.393,227.689 128.218 M171.513 199.662 C 158.194 239.373,147.362 271.926,147.444 272.001 C 147.681 272.222,195.560 243.556,195.609 243.165 C 195.634 242.970,192.174 240.548,187.920 237.782 C 180.483 232.947,180.190 232.711,180.309 231.654 C 180.377 231.050,183.913 207.397,188.166 179.092 C 192.420 150.787,195.862 127.590,195.815 127.544 C 195.769 127.498,184.833 159.951,171.513 199.662 M205.728 128.889 C 205.823 129.602,209.162 153.255,213.149 181.451 C 217.136 209.648,220.251 232.814,220.072 232.933 C 219.893 233.051,216.295 235.381,212.075 238.109 C 207.856 240.838,204.538 243.192,204.702 243.340 C 205.228 243.816,253.071 272.238,253.173 272.135 C 253.275 272.034,206.274 129.139,205.813 128.148 C 205.671 127.843,205.632 128.176,205.728 128.889 M196.000 209.651 C 191.284 212.008,188.500 216.919,189.026 221.954 C 190.114 232.361,202.352 236.932,209.994 229.785 C 212.072 227.841,212.174 227.392,210.312 228.380 C 208.225 229.489,203.654 229.323,201.052 228.045 C 194.127 224.644,192.422 215.772,197.594 210.047 C 199.244 208.220,198.990 208.157,196.000 209.651 " stroke="none" fill="#fafafa" fill-rule="evenodd"></path><path id="path1" d="M186.481 15.050 C 121.189 20.110,64.250 58.005,34.633 116.111 C 13.725 157.130,9.040 205.782,21.668 250.741 C 49.221 348.833,151.985 406.071,250.741 378.332 C 348.833 350.779,406.071 248.015,378.332 149.259 C 358.060 77.088,296.820 25.195,220.741 15.721 C 215.967 15.127,191.643 14.650,186.481 15.050 M208.318 89.167 C 214.055 106.414,216.132 112.222,216.560 112.222 C 220.052 112.222,233.616 116.455,240.185 119.595 C 292.822 144.750,306.507 214.494,267.272 257.636 L 265.212 259.902 273.328 284.242 C 279.048 301.398,281.271 308.517,280.858 308.358 C 280.536 308.235,262.270 297.195,240.269 283.825 C 208.950 264.794,200.136 259.596,199.670 259.879 C 183.940 269.435,118.421 308.544,118.316 308.439 C 118.234 308.357,121.828 297.466,126.303 284.237 C 130.779 271.009,134.441 260.053,134.442 259.892 C 134.443 259.731,133.361 258.356,132.036 256.837 C 93.663 212.838,107.473 144.609,159.815 119.595 C 166.560 116.371,179.958 112.222,183.624 112.222 C 184.288 112.222,184.860 110.794,188.260 100.648 C 197.751 72.329,200.116 65.526,200.374 65.809 C 200.525 65.975,204.100 76.486,208.318 89.167 M235.013 83.241 C 235.952 86.245,236.793 88.966,236.883 89.288 C 236.992 89.679,238.813 90.398,242.403 91.467 C 248.748 93.358,248.755 93.193,242.219 95.372 C 239.369 96.321,237.037 97.160,237.037 97.236 C 237.037 97.758,233.922 108.029,233.685 108.288 C 233.521 108.467,233.211 107.967,232.996 107.177 C 232.780 106.387,232.059 103.824,231.392 101.481 L 230.180 97.222 225.012 95.518 C 219.123 93.576,219.105 93.846,225.270 91.677 C 230.368 89.882,230.081 90.207,231.278 84.868 C 232.473 79.538,232.938 77.778,233.152 77.778 C 233.237 77.778,234.075 80.236,235.013 83.241 M197.989 103.628 C 196.797 107.235,195.743 110.394,195.649 110.648 C 195.516 111.004,196.591 111.111,200.273 111.111 L 205.070 111.111 202.709 104.186 C 201.411 100.378,200.305 97.219,200.253 97.167 C 200.201 97.114,199.182 100.022,197.989 103.628 M192.252 124.771 L 190.986 125.000 186.411 138.704 C 147.304 255.830,137.855 284.827,139.026 284.117 C 140.061 283.489,191.084 253.189,197.629 249.316 L 200.257 247.761 231.636 266.138 C 248.895 276.246,263.090 284.441,263.181 284.350 C 263.271 284.259,252.993 253.452,240.339 215.889 C 227.685 178.326,215.630 142.523,213.551 136.326 C 210.640 127.647,209.606 124.995,209.052 124.778 C 208.202 124.445,194.086 124.439,192.252 124.771 M236.981 221.852 C 246.128 249.657,253.567 272.459,253.512 272.522 C 253.416 272.633,204.924 243.857,204.340 243.342 C 204.180 243.202,207.638 240.767,212.025 237.932 C 217.987 234.079,220.000 232.593,220.000 232.045 C 220.000 231.642,219.089 224.892,217.976 217.045 C 207.659 144.334,205.187 126.743,205.197 126.107 C 205.210 125.354,208.000 133.758,236.981 221.852 M191.706 156.903 C 182.009 221.181,180.304 232.649,180.428 232.752 C 180.498 232.810,184.108 235.154,188.450 237.960 C 192.793 240.766,196.209 243.192,196.043 243.351 C 195.242 244.117,147.209 272.518,147.123 272.277 C 147.069 272.124,158.027 239.201,171.475 199.116 C 184.923 159.030,195.926 126.136,195.926 126.017 C 195.926 125.899,196.018 125.895,196.131 126.008 C 196.244 126.121,194.253 140.023,191.706 156.903 M175.980 127.250 C 123.213 142.848,102.113 204.887,134.504 249.195 C 135.743 250.891,136.884 252.141,137.038 251.973 C 137.289 251.699,144.681 229.887,171.439 150.463 C 175.917 137.171,179.467 126.305,179.328 126.316 C 179.188 126.327,177.682 126.747,175.980 127.250 M220.837 126.773 C 220.928 127.020,230.399 155.422,241.883 189.888 C 262.132 250.660,262.784 252.534,263.460 251.925 C 265.994 249.639,272.868 237.633,275.426 231.025 C 292.272 187.508,268.169 139.506,223.207 127.028 C 221.435 126.536,220.722 126.460,220.837 126.773 M197.638 210.398 C 189.876 219.032,199.626 232.857,210.184 228.187 C 212.502 227.162,212.611 227.372,210.789 229.350 C 208.357 231.988,205.952 233.085,202.222 233.258 C 187.727 233.931,183.482 214.523,196.929 209.058 C 199.650 207.952,199.720 208.083,197.638 210.398 " stroke="none" fill="#07124b" fill-rule="evenodd"></path><path id="path2" d="M199.179 124.348 C 200.255 124.423,201.922 124.422,202.883 124.346 C 203.844 124.270,202.963 124.208,200.926 124.209 C 198.889 124.210,198.103 124.273,199.179 124.348 M119.022 202.593 C 119.022 204.528,119.085 205.319,119.161 204.352 C 119.237 203.384,119.237 201.801,119.161 200.833 C 119.085 199.866,119.022 200.657,119.022 202.593 M280.874 202.593 C 280.874 204.528,280.937 205.319,281.013 204.352 C 281.089 203.384,281.089 201.801,281.013 200.833 C 280.937 199.866,280.874 200.657,280.874 202.593 M192.384 211.944 L 191.296 213.148 192.500 212.060 C 193.162 211.462,193.704 210.920,193.704 210.857 C 193.704 210.570,193.398 210.822,192.384 211.944 M133.169 258.172 C 133.972 259.101,134.705 259.804,134.797 259.733 C 134.889 259.662,134.231 258.902,133.336 258.043 L 131.708 256.481 133.169 258.172 M266.464 258.241 L 265.000 259.815 266.574 258.351 C 267.440 257.546,268.148 256.837,268.148 256.777 C 268.148 256.496,267.826 256.777,266.464 258.241 " stroke="none" fill="#676d8b" fill-rule="evenodd"></path><path id="path3" d="" stroke="none" fill="#848c9d" fill-rule="evenodd"></path><path id="path4" d="M196.949 111.373 C 197.409 111.462,198.076 111.458,198.430 111.366 C 198.784 111.273,198.407 111.200,197.593 111.205 C 196.778 111.209,196.488 111.284,196.949 111.373 M203.245 111.373 C 203.706 111.462,204.372 111.458,204.727 111.366 C 205.081 111.273,204.704 111.200,203.889 111.205 C 203.074 111.209,202.784 111.284,203.245 111.373 M136.100 136.389 L 133.889 138.704 136.204 136.493 C 138.354 134.440,138.688 134.074,138.414 134.074 C 138.357 134.074,137.315 135.116,136.100 136.389 M263.519 136.296 C 264.728 137.519,265.801 138.519,265.903 138.519 C 266.005 138.519,265.098 137.519,263.889 136.296 C 262.679 135.074,261.607 134.074,261.505 134.074 C 261.403 134.074,262.309 135.074,263.519 136.296 M110.093 195.000 C 110.098 195.815,110.173 196.105,110.262 195.644 C 110.351 195.183,110.347 194.516,110.254 194.162 C 110.162 193.808,110.089 194.185,110.093 195.000 M289.723 195.000 C 289.727 195.815,289.803 196.105,289.892 195.644 C 289.980 195.183,289.977 194.516,289.884 194.162 C 289.791 193.808,289.719 194.185,289.723 195.000 M110.086 201.481 C 110.086 202.194,110.162 202.486,110.255 202.130 C 110.348 201.773,110.348 201.190,110.255 200.833 C 110.162 200.477,110.086 200.769,110.086 201.481 M289.716 201.481 C 289.716 202.194,289.792 202.486,289.885 202.130 C 289.978 201.773,289.978 201.190,289.885 200.833 C 289.792 200.477,289.716 200.769,289.716 201.481 M194.538 217.963 C 194.542 218.778,194.618 219.068,194.706 218.607 C 194.795 218.146,194.792 217.479,194.699 217.125 C 194.606 216.771,194.534 217.148,194.538 217.963 " stroke="none" fill="#8c8cac" fill-rule="evenodd"></path></g></svg>